<svg width="519" height="427" viewBox="0 0 519 427" fill="none" xmlns="http://www.w3.org/2000/svg">
<path d="M325.041 150.731C331.428 150.731 336.537 145.621 336.537 139.234C336.537 132.847 331.428 127.738 325.041 127.738C318.654 127.738 313.544 132.847 313.544 139.234C313.544 145.621 318.654 150.731 325.041 150.731Z" fill="url(#paint0_linear_108_260)"/>
<path d="M254.667 425.955C256.177 426.652 257.803 427 259.428 427C261.054 427 262.68 426.652 264.19 425.955C274.641 421.194 518.857 308.899 518.857 145.275C518.857 65.1474 453.709 0 373.581 0C328.408 0 286.834 20.5545 259.428 55.625C232.022 20.5545 190.449 0 145.275 0C65.1474 0 0 65.1474 0 145.275C0 308.899 244.216 421.31 254.667 425.955ZM76.4117 268.486C160.952 258.615 197.649 224.242 213.21 200.668C222.384 222.268 239.338 236.319 257.57 236.319C259.544 236.319 261.519 236.203 263.493 235.855C276.383 233.648 287.531 224.358 293.918 210.19C299.724 197.416 301.466 181.623 298.795 165.83C296.473 152.359 291.363 140.05 283.815 130.179C279.867 125.069 272.435 124.024 267.209 127.972C261.983 131.921 261.054 139.353 265.002 144.578C270.112 151.198 273.828 160.14 275.338 169.662C277.196 180.81 276.034 191.958 272.318 200.436C270.46 204.5 266.396 211.352 259.544 212.513C248.977 214.139 234.461 200.203 230.629 177.094C229.235 168.965 229.467 160.952 231.209 153.869C231.326 153.288 231.209 152.707 231.326 152.011C245.493 114.037 265.235 108.927 265.235 108.927C318.769 84.8891 370.098 137.611 370.098 137.611H423.632V150.849C423.632 187.313 394.136 216.81 357.672 216.81C275.338 233.88 260.59 320.86 260.59 320.86C259.428 347.917 250.022 372.304 239.106 391.93C200.784 371.607 126.927 327.479 76.4117 268.486Z" fill="url(#paint1_linear_108_260)"/>
<defs>
<linearGradient id="paint0_linear_108_260" x1="373.625" y1="380.03" x2="11.7424" y2="58.7126" gradientUnits="userSpaceOnUse">
<stop stop-color="#FF5C00"/>
<stop offset="0.402485" stop-color="#FF8E26"/>
<stop offset="0.965" stop-color="#FFC149"/>
</linearGradient>
<linearGradient id="paint1_linear_108_260" x1="373.625" y1="380.03" x2="11.7424" y2="58.7126" gradientUnits="userSpaceOnUse">
<stop stop-color="#FF5C00"/>
<stop offset="0.402485" stop-color="#FF8E26"/>
<stop offset="0.965" stop-color="#FFC149"/>
</linearGradient>
</defs>
</svg>
