<svg width="36" height="35" viewBox="0 0 36 35" fill="none" xmlns="http://www.w3.org/2000/svg">
<rect width="36" height="35" rx="10" fill="url(#paint0_linear_10_522)"/>
<g clip-path="url(#clip0_10_522)">
<path d="M27.5272 10.7827C27.4522 10.7217 27.3638 10.6794 27.2692 10.6592C27.1747 10.639 27.0767 10.6415 26.9833 10.6666L21.1105 12.4999L15.2255 9.51159C15.1451 9.47436 15.0575 9.45508 14.9688 9.45508C14.8802 9.45508 14.7926 9.47436 14.7122 9.51159L8.60106 12.011C8.4885 12.0573 8.39231 12.1361 8.3248 12.2373C8.2573 12.3386 8.22157 12.4577 8.22218 12.5794V25.0949C8.22267 25.195 8.24775 25.2934 8.2952 25.3816C8.34265 25.4697 8.41102 25.5448 8.4943 25.6004C8.57758 25.6559 8.67322 25.6901 8.77282 25.7C8.87242 25.7099 8.97293 25.6952 9.06551 25.6571L14.9444 23.2433L20.805 26.2499C20.8919 26.2945 20.9883 26.3175 21.0861 26.3171C21.1468 26.3264 21.2086 26.3264 21.2694 26.3171L27.3805 24.4105C27.5093 24.3701 27.6211 24.2883 27.6985 24.1778C27.7758 24.0672 27.8145 23.9342 27.8083 23.7994V11.2777C27.8051 11.1786 27.7779 11.0817 27.7289 10.9955C27.6799 10.9092 27.6107 10.8362 27.5272 10.7827ZM26.5555 23.3471L21.4711 24.936V23.5366H20.4933V24.7588L15.36 22.1249V21.0921H14.3822V22.1433L9.4444 24.1783V12.9827L14.3822 10.9477V12.3838H15.36V10.9538L20.4933 13.5816V14.8649H21.4711V13.7221L26.5555 12.1088V23.3471Z" fill="white"/>
<path d="M20.4934 16.2034H21.4712V18.5317H20.4934V16.2034Z" fill="white"/>
<path d="M20.4934 19.8701H21.4712V22.1985H20.4934V19.8701Z" fill="white"/>
<path d="M14.3823 13.7588H15.3601V16.0871H14.3823V13.7588Z" fill="white"/>
<path d="M14.3823 17.4683H15.3601V19.7599H14.3823V17.4683Z" fill="white"/>
<path d="M21.9375 12.1875L20.4375 13.6875L18.9375 14.25L18.375 14.8125L21 17.4375L21.5625 16.875L22.125 15.375L23.625 13.875M19.6875 16.125L18 17.8125L19.6875 16.125ZM21.75 12L23.8125 14.0625L21.75 12Z" fill="#F06F20"/>
<path d="M21.9375 12.1875L20.4375 13.6875L18.9375 14.25L18.375 14.8125L21 17.4375L21.5625 16.875L22.125 15.375L23.625 13.875M19.6875 16.125L18 17.8125M21.75 12L23.8125 14.0625" stroke="white" stroke-linecap="round" stroke-linejoin="round"/>
</g>
<defs>
<linearGradient id="paint0_linear_10_522" x1="25.9233" y1="31.15" x2="-2.77111" y2="9.58351" gradientUnits="userSpaceOnUse">
<stop stop-color="#D94509"/>
<stop offset="0.402485" stop-color="#F27322"/>
<stop offset="0.965" stop-color="#FF934B"/>
</linearGradient>
<clipPath id="clip0_10_522">
<rect width="22" height="22" fill="white" transform="translate(7 7)"/>
</clipPath>
</defs>
</svg>
