<svg width="30" height="30" viewBox="0 0 30 30" fill="none" xmlns="http://www.w3.org/2000/svg">
<rect width="30" height="30" rx="10" fill="url(#paint0_linear_177_175)"/>
<path d="M15.5948 11.4696C15.7354 11.329 15.9261 11.25 16.125 11.25C16.3239 11.25 16.5146 11.329 16.6552 11.4696L20.0302 14.8446C20.1709 14.9852 20.2498 15.176 20.2498 15.3748C20.2498 15.5737 20.1709 15.7644 20.0302 15.9051L16.6552 19.2801C16.5138 19.4167 16.3243 19.4923 16.1277 19.4906C15.9311 19.4889 15.7429 19.41 15.6039 19.271C15.4648 19.1319 15.386 18.9438 15.3842 18.7471C15.3825 18.5505 15.4581 18.361 15.5948 18.2196L17.625 16.1248H10.5C10.3011 16.1248 10.1103 16.0458 9.96967 15.9052C9.82902 15.7645 9.75 15.5738 9.75 15.3748C9.75 15.1759 9.82902 14.9852 9.96967 14.8445C10.1103 14.7039 10.3011 14.6248 10.5 14.6248H17.625L15.5948 12.5301C15.4541 12.3894 15.3752 12.1987 15.3752 11.9998C15.3752 11.801 15.4541 11.6102 15.5948 11.4696Z" fill="white"/>
<defs>
<linearGradient id="paint0_linear_177_175" x1="21.6028" y1="26.7" x2="-2.79168" y2="8.87464" gradientUnits="userSpaceOnUse">
<stop stop-color="#D94509"/>
<stop offset="0.402485" stop-color="#F27322"/>
<stop offset="0.965" stop-color="#FF934B"/>
</linearGradient>
</defs>
</svg>
