<svg width="11" height="9" viewBox="0 0 11 9" fill="none" xmlns="http://www.w3.org/2000/svg">
<path d="M5.84475 0.21959C5.9854 0.0789865 6.17613 0 6.375 0C6.57387 0 6.7646 0.0789865 6.90525 0.21959L10.2802 3.59459C10.4209 3.73524 10.4998 3.92597 10.4998 4.12484C10.4998 4.32371 10.4209 4.51444 10.2802 4.65509L6.90525 8.03009C6.7638 8.16671 6.57435 8.2423 6.3777 8.2406C6.18105 8.23889 5.99294 8.16001 5.85389 8.02095C5.71483 7.8819 5.63595 7.69379 5.63424 7.49714C5.63254 7.30049 5.70813 7.11104 5.84475 6.96959L7.875 4.87484H0.75C0.551088 4.87484 0.360322 4.79582 0.21967 4.65517C0.0790176 4.51452 0 4.32375 0 4.12484C0 3.92593 0.0790176 3.73516 0.21967 3.59451C0.360322 3.45386 0.551088 3.37484 0.75 3.37484H7.875L5.84475 1.28009C5.70415 1.13944 5.62516 0.948713 5.62516 0.74984C5.62516 0.550967 5.70415 0.360236 5.84475 0.21959Z" fill="white"/>
</svg>
