<svg width="41" height="41" viewBox="0 0 41 41" fill="none" xmlns="http://www.w3.org/2000/svg">
<g filter="url(#filter0_d_266_216)">
<circle cx="20.5" cy="16.5" r="16.5" fill="#FF5C00" fill-opacity="0.5" shape-rendering="crispEdges"/>
<circle cx="20.5" cy="16.5" r="15.5" stroke="#FF5C00" stroke-width="2" shape-rendering="crispEdges"/>
</g>
<path d="M20.7931 10.3197C20.9806 10.115 21.235 9.99994 21.5001 9.99994C21.7653 9.99994 22.0196 10.115 22.2071 10.3197L26.7072 15.2344C26.8947 15.4392 27 15.7169 27 16.0065C27 16.2961 26.8947 16.5739 26.7072 16.7787L22.2071 21.6934C22.0185 21.8923 21.7659 22.0024 21.5037 21.9999C21.2415 21.9974 20.9907 21.8825 20.8053 21.6801C20.6199 21.4776 20.5147 21.2036 20.5124 20.9173C20.5102 20.6309 20.611 20.355 20.7931 20.1491L23.5002 17.0987H14C13.7348 17.0987 13.4804 16.9836 13.2929 16.7788C13.1054 16.574 13 16.2962 13 16.0065C13 15.7169 13.1054 15.4391 13.2929 15.2343C13.4804 15.0294 13.7348 14.9144 14 14.9144H23.5002L20.7931 11.864C20.6056 11.6592 20.5003 11.3815 20.5003 11.0919C20.5003 10.8023 20.6056 10.5245 20.7931 10.3197Z" fill="white"/>
<defs>
<filter id="filter0_d_266_216" x="0" y="0" width="41" height="41" filterUnits="userSpaceOnUse" color-interpolation-filters="sRGB">
<feFlood flood-opacity="0" result="BackgroundImageFix"/>
<feColorMatrix in="SourceAlpha" type="matrix" values="0 0 0 0 0 0 0 0 0 0 0 0 0 0 0 0 0 0 127 0" result="hardAlpha"/>
<feOffset dy="4"/>
<feGaussianBlur stdDeviation="2"/>
<feComposite in2="hardAlpha" operator="out"/>
<feColorMatrix type="matrix" values="0 0 0 0 0 0 0 0 0 0 0 0 0 0 0 0 0 0 0.25 0"/>
<feBlend mode="normal" in2="BackgroundImageFix" result="effect1_dropShadow_266_216"/>
<feBlend mode="normal" in="SourceGraphic" in2="effect1_dropShadow_266_216" result="shape"/>
</filter>
</defs>
</svg>
