<svg width="35" height="32" viewBox="0 0 35 32" fill="none" xmlns="http://www.w3.org/2000/svg">
<path d="M30.75 4.82065H26.1928L23.952 1.46027C23.8319 1.28034 23.6693 1.13279 23.4786 1.0307C23.2879 0.928609 23.075 0.87513 22.8587 0.875H12.337C12.1207 0.87513 11.9077 0.928609 11.717 1.0307C11.5263 1.13279 11.3637 1.28034 11.2437 1.46027L9.00124 4.82065H4.44565C3.3992 4.82065 2.39561 5.23635 1.65566 5.97631C0.915702 6.71626 0.5 7.71985 0.5 8.7663V27.1793C0.5 28.2258 0.915702 29.2294 1.65566 29.9693C2.39561 30.7093 3.3992 31.125 4.44565 31.125H30.75C31.7965 31.125 32.8 30.7093 33.54 29.9693C34.28 29.2294 34.6957 28.2258 34.6957 27.1793V8.7663C34.6957 7.71985 34.28 6.71626 33.54 5.97631C32.8 5.23635 31.7965 4.82065 30.75 4.82065ZM32.0652 27.1793C32.0652 27.5282 31.9267 27.8627 31.68 28.1093C31.4334 28.356 31.0988 28.4946 30.75 28.4946H4.44565C4.09684 28.4946 3.7623 28.356 3.51565 28.1093C3.269 27.8627 3.13043 27.5282 3.13043 27.1793V8.7663C3.13043 8.41749 3.269 8.08296 3.51565 7.83631C3.7623 7.58965 4.09684 7.45109 4.44565 7.45109H9.70652C9.92311 7.45123 10.1364 7.39788 10.3274 7.29578C10.5184 7.19368 10.6812 7.04598 10.8014 6.86582L13.0406 3.50543H22.1534L24.3942 6.86582C24.5144 7.04598 24.6773 7.19368 24.8683 7.29578C25.0593 7.39788 25.2725 7.45123 25.4891 7.45109H30.75C31.0988 7.45109 31.4334 7.58965 31.68 7.83631C31.9267 8.08296 32.0652 8.41749 32.0652 8.7663V27.1793ZM17.5978 10.0815C16.1671 10.0815 14.7686 10.5058 13.579 11.3006C12.3894 12.0955 11.4623 13.2252 10.9148 14.547C10.3673 15.8688 10.224 17.3232 10.5031 18.7264C10.7822 20.1296 11.4712 21.4186 12.4828 22.4302C13.4945 23.4419 14.7834 24.1308 16.1866 24.4099C17.5898 24.689 19.0443 24.5458 20.366 23.9983C21.6878 23.4508 22.8176 22.5236 23.6124 21.334C24.4073 20.1445 24.8315 18.7459 24.8315 17.3152C24.8293 15.3974 24.0665 13.5587 22.7104 12.2026C21.3543 10.8465 19.5157 10.0837 17.5978 10.0815ZM17.5978 21.9185C16.6874 21.9185 15.7974 21.6485 15.0404 21.1427C14.2834 20.6369 13.6934 19.9179 13.345 19.0768C12.9966 18.2357 12.9054 17.3101 13.083 16.4172C13.2606 15.5242 13.6991 14.704 14.3428 14.0602C14.9866 13.4164 15.8068 12.978 16.6998 12.8004C17.5927 12.6228 18.5183 12.7139 19.3594 13.0624C20.2006 13.4108 20.9195 14.0008 21.4253 14.7578C21.9311 15.5148 22.2011 16.4048 22.2011 17.3152C22.2011 18.5361 21.7161 19.7069 20.8528 20.5702C19.9895 21.4335 18.8187 21.9185 17.5978 21.9185Z" fill="#6A6A6A"/>
</svg>
