<svg width="20" height="21" viewBox="0 0 20 21" fill="none" xmlns="http://www.w3.org/2000/svg">
<path d="M16.6667 0H3.33333C2.44928 0 1.60143 0.329813 0.976311 0.916882C0.35119 1.50395 0 2.30019 0 3.13043V14.6087C0 15.4389 0.35119 16.2352 0.976311 16.8222C1.60143 17.4093 2.44928 17.7391 3.33333 17.7391H6.21111L9.21111 20.5669C9.31493 20.6637 9.43806 20.7402 9.57344 20.7921C9.70881 20.844 9.85377 20.8703 10 20.8695C10.2648 20.8696 10.521 20.7808 10.7222 20.6191L14.3 17.7391H16.6667C17.5507 17.7391 18.3986 17.4093 19.0237 16.8222C19.6488 16.2352 20 15.4389 20 14.6087V3.13043C20 2.30019 19.6488 1.50395 19.0237 0.916882C18.3986 0.329813 17.5507 0 16.6667 0ZM17.7778 14.6087C17.7778 14.8854 17.6607 15.1508 17.4523 15.3465C17.244 15.5422 16.9614 15.6522 16.6667 15.6522H13.8889C13.6241 15.6521 13.3679 15.741 13.1667 15.9026L10.0556 18.4069L7.45556 15.9548C7.35173 15.8581 7.2286 15.7815 7.09323 15.7296C6.95785 15.6777 6.8129 15.6514 6.66667 15.6522H3.33333C3.03865 15.6522 2.75603 15.5422 2.54766 15.3465C2.33929 15.1508 2.22222 14.8854 2.22222 14.6087V3.13043C2.22222 2.85368 2.33929 2.58827 2.54766 2.39258C2.75603 2.19689 3.03865 2.08695 3.33333 2.08695H16.6667C16.9614 2.08695 17.244 2.19689 17.4523 2.39258C17.6607 2.58827 17.7778 2.85368 17.7778 3.13043V14.6087Z" fill="#373737"/>
<circle cx="6.5" cy="8.5" r="1.5" fill="#373737"/>
<circle cx="10.5" cy="8.5" r="1.5" fill="#373737"/>
<circle cx="14.5" cy="8.5" r="1.5" fill="#373737"/>
</svg>
