<svg width="23" height="20" viewBox="0 0 23 20" fill="none" xmlns="http://www.w3.org/2000/svg">
<path d="M17.3734 12.3902C17.0188 11.1285 16.2522 10.0158 15.1912 9.22288C14.1303 8.42995 12.8335 8.00054 11.5 8.00054C10.1664 8.00054 8.86969 8.42995 7.80872 9.22288C6.74776 10.0158 5.98116 11.1285 5.62653 12.3902L4.78144 15.3969C4.62971 15.9367 4.60707 16.5036 4.71529 17.0535C4.82352 17.6033 5.05968 18.1212 5.40536 18.5667C5.75104 19.0123 6.19691 19.3734 6.70819 19.622C7.21947 19.8706 7.78235 20 8.35294 20H14.647C15.2176 20 15.7805 19.8706 16.2918 19.622C16.8031 19.3734 17.2489 19.0123 17.5946 18.5667C17.9403 18.1212 18.1765 17.6033 18.2847 17.0535C18.3929 16.5036 18.3703 15.9367 18.2185 15.3969L17.3734 12.3902ZM6.41036 9.01461C6.53929 8.22374 6.3683 7.3771 5.92872 6.63004C5.48913 5.88299 4.82743 5.31433 4.06528 5.02848C3.24909 4.72254 2.41659 4.77127 1.72035 5.16561C0.336236 5.94994 -0.0280038 7.88298 0.908553 9.47473C1.348 10.2218 2.00975 10.7906 2.77189 11.0763C3.10951 11.2054 3.46837 11.2728 3.83071 11.275C4.28213 11.2766 4.72591 11.1607 5.11683 10.9391C5.81266 10.5447 6.27207 9.86125 6.41036 9.01461ZM6.57087 6.00144C7.09706 6.41428 7.69795 6.62927 8.3056 6.62922C8.48762 6.62917 8.6691 6.60995 8.84694 6.57191C10.4087 6.2387 11.3556 4.50642 10.9578 2.71037C10.7712 1.86741 10.3174 1.12785 9.68018 0.627828C8.99778 0.0923985 8.18946 -0.110274 7.40411 0.0573548C5.84239 0.390521 4.89546 2.1228 5.29323 3.91885C5.47991 4.76186 5.93367 5.50141 6.57087 6.00144ZM21.2796 5.16561C20.5837 4.77127 19.7507 4.72254 18.9347 5.02848C18.1725 5.31424 17.5108 5.88299 17.0713 6.63004C16.6319 7.3771 16.4609 8.22392 16.5897 9.01461C16.7278 9.86125 17.1871 10.5447 17.8832 10.9391C18.2741 11.1607 18.7179 11.2766 19.1693 11.275C19.5317 11.2728 19.8906 11.2054 20.2282 11.0763C20.9903 10.7906 21.6521 10.2218 22.0915 9.47473C23.028 7.88298 22.6637 5.94994 21.2796 5.16561ZM14.153 6.57191C14.3309 6.60995 14.5124 6.62917 14.6944 6.62922C15.302 6.62922 15.9031 6.41428 16.4291 6.00144C17.0663 5.50146 17.5201 4.76186 17.7067 3.9189C18.1045 2.12285 17.1576 0.390566 15.5959 0.0574002C14.8106 -0.110137 14.0022 0.0923985 13.3198 0.627873C12.6825 1.12785 12.2288 1.86745 12.0422 2.71037C11.6443 4.50642 12.5913 6.2387 14.153 6.57191Z" fill="#F27322"/>
</svg>
