<svg width="23" height="24" viewBox="0 0 23 24" fill="none" xmlns="http://www.w3.org/2000/svg">
<path d="M17.3734 12.3902C17.0188 11.1285 16.2522 10.0158 15.1912 9.22288C14.1303 8.42995 12.8335 8.00054 11.5 8.00054C10.1664 8.00054 8.86969 8.42995 7.80872 9.22288C6.74776 10.0158 5.98116 11.1285 5.62653 12.3902L4.78144 15.3969C4.62971 15.9367 4.60707 16.5036 4.71529 17.0535C4.82352 17.6033 5.05968 18.1212 5.40536 18.5667C5.75104 19.0123 6.19691 19.3734 6.70819 19.622C7.21947 19.8706 7.78235 20 8.35294 20H14.647C15.2176 20 15.7805 19.8706 16.2918 19.622C16.8031 19.3734 17.2489 19.0123 17.5946 18.5667C17.9403 18.1212 18.1765 17.6033 18.2847 17.0535C18.3929 16.5036 18.3703 15.9367 18.2185 15.3969L17.3734 12.3902ZM6.41036 9.01461C6.53929 8.22374 6.3683 7.3771 5.92872 6.63004C5.48913 5.88299 4.82743 5.31433 4.06528 5.02848C3.24909 4.72254 2.41659 4.77127 1.72035 5.16561C0.336236 5.94994 -0.0280038 7.88298 0.908553 9.47473C1.348 10.2218 2.00975 10.7906 2.77189 11.0763C3.10951 11.2054 3.46837 11.2728 3.83071 11.275C4.28213 11.2766 4.72591 11.1607 5.11683 10.9391C5.81266 10.5447 6.27207 9.86125 6.41036 9.01461ZM6.57087 6.00144C7.09706 6.41428 7.69795 6.62927 8.3056 6.62922C8.48762 6.62917 8.6691 6.60995 8.84694 6.57191C10.4087 6.2387 11.3556 4.50642 10.9578 2.71037C10.7712 1.86741 10.3174 1.12785 9.68018 0.627828C8.99778 0.0923985 8.18946 -0.110274 7.40411 0.0573548C5.84239 0.390521 4.89546 2.1228 5.29323 3.91885C5.47991 4.76186 5.93367 5.50141 6.57087 6.00144ZM21.2796 5.16561C20.5837 4.77127 19.7507 4.72254 18.9347 5.02848C18.1725 5.31424 17.5108 5.88299 17.0713 6.63004C16.6319 7.3771 16.4609 8.22392 16.5897 9.01461C16.7278 9.86125 17.1871 10.5447 17.8832 10.9391C18.2741 11.1607 18.7179 11.2766 19.1693 11.275C19.5317 11.2728 19.8906 11.2054 20.2282 11.0763C20.9903 10.7906 21.6521 10.2218 22.0915 9.47473C23.028 7.88298 22.6637 5.94994 21.2796 5.16561ZM14.153 6.57191C14.3309 6.60995 14.5124 6.62917 14.6944 6.62922C15.302 6.62922 15.9031 6.41428 16.4291 6.00144C17.0663 5.50146 17.5201 4.76186 17.7067 3.9189C18.1045 2.12285 17.1576 0.390566 15.5959 0.0574002C14.8106 -0.110137 14.0022 0.0923985 13.3198 0.627873C12.6825 1.12785 12.2288 1.86745 12.0422 2.71037C11.6443 4.50642 12.5913 6.2387 14.153 6.57191Z" fill="#696969"/>
<path d="M22.2495 17.5108C22.1717 17.3551 22.0572 17.2206 21.916 17.1188L21.1377 16.5336C21.0973 16.5057 21.0682 16.4642 21.0558 16.4166C21.0384 16.3694 21.0384 16.3175 21.0558 16.2703L21.3777 15.3166C21.4293 15.146 21.4413 14.9659 21.4128 14.7899C21.3858 14.6108 21.3132 14.4415 21.2021 14.2984C21.0951 14.1553 20.9544 14.0407 20.7925 13.9649C20.6377 13.8905 20.4667 13.8563 20.2951 13.8654H19.4174C19.3655 13.8648 19.3152 13.8473 19.2741 13.8157C19.2329 13.784 19.2032 13.7399 19.1892 13.6899L18.9376 12.8122C18.8891 12.6341 18.7965 12.4711 18.6685 12.3382C18.5407 12.2084 18.3844 12.1102 18.2121 12.0515C18.0378 11.998 17.8535 11.986 17.6737 12.0164C17.4955 12.0512 17.3286 12.1296 17.1881 12.2446L16.521 12.7712C16.484 12.8045 16.4362 12.8232 16.3864 12.8239C16.3415 12.8282 16.2964 12.8179 16.2577 12.7946L15.5965 12.268C15.4608 12.1571 15.3001 12.0807 15.1284 12.0456C14.9592 12.0047 14.7826 12.0047 14.6135 12.0456C14.4438 12.0928 14.2875 12.1789 14.157 12.2972C14.0236 12.4265 13.9215 12.5846 13.8586 12.7595L13.607 13.6431C13.5942 13.6951 13.5631 13.7409 13.5192 13.7718C13.473 13.8035 13.4171 13.818 13.3613 13.8127H12.5304C12.3508 13.8057 12.1723 13.8418 12.0096 13.9181C11.8445 13.9913 11.7014 14.1063 11.5941 14.2516C11.4864 14.3945 11.4142 14.561 11.3835 14.7373C11.3542 14.9087 11.3659 15.0854 11.4186 15.2522L11.7053 16.2405C11.7204 16.2875 11.7206 16.338 11.706 16.3851C11.6913 16.4322 11.6625 16.4737 11.6234 16.5038L10.8452 17.0889C10.7036 17.1943 10.5877 17.33 10.5058 17.4868C10.4289 17.6424 10.3889 17.8136 10.3889 17.9871C10.3889 18.1607 10.4289 18.3318 10.5058 18.4874C10.5874 18.6439 10.7035 18.78 10.8452 18.8853L11.6234 19.4704C11.6625 19.5006 11.6913 19.542 11.706 19.5892C11.7206 19.6363 11.7204 19.6868 11.7053 19.7338L11.3835 20.6875C11.329 20.8595 11.315 21.0417 11.3425 21.22C11.3718 21.3944 11.4443 21.5594 11.5532 21.6998C11.6603 21.8461 11.8036 21.9631 11.9686 22.0392C12.1237 22.1129 12.2945 22.1469 12.466 22.1387H13.3378C13.3906 22.1364 13.4425 22.153 13.4841 22.1855C13.5262 22.2144 13.5555 22.2584 13.5661 22.3084L13.8177 23.1919C13.8697 23.3668 13.9618 23.5271 14.0868 23.66C14.2777 23.8588 14.5358 23.9791 14.8107 23.9975C15.0856 24.0159 15.3575 23.931 15.5731 23.7595L16.246 23.227C16.2866 23.1943 16.3372 23.1764 16.3893 23.1764C16.4415 23.1764 16.4921 23.1943 16.5327 23.227L17.1939 23.7537C17.3343 23.8719 17.504 23.9509 17.6854 23.9819C17.7515 23.9877 17.8183 23.9877 17.8844 23.9819C17.9995 23.982 18.114 23.9642 18.2238 23.9292C18.3974 23.8745 18.5548 23.7774 18.6814 23.6467C18.8081 23.5159 18.9002 23.3556 18.9493 23.1802L19.2068 22.2908C19.2173 22.2409 19.2466 22.1969 19.2887 22.1679C19.334 22.1337 19.3901 22.1171 19.4467 22.1211H20.2834C20.4624 22.1282 20.6405 22.0942 20.8042 22.0217C20.9656 21.9446 21.1061 21.8301 21.214 21.6875C21.3219 21.545 21.3941 21.3786 21.4245 21.2025C21.4548 21.0224 21.4407 20.8376 21.3835 20.6641L21.0675 19.7162C21.0501 19.669 21.0501 19.6171 21.0675 19.5699C21.0799 19.5223 21.109 19.4808 21.1494 19.4529L21.9277 18.8678C22.0692 18.7638 22.1836 18.6273 22.2612 18.4699C22.343 18.3148 22.3852 18.1419 22.3841 17.9666C22.373 17.8065 22.3271 17.6513 22.2495 17.5108ZM19.0664 17.0655L16.48 19.6518C16.3798 19.7498 16.2629 19.8291 16.1348 19.8859C16.0049 19.9386 15.8656 19.9666 15.7252 19.9678C15.582 19.9686 15.4404 19.9387 15.3098 19.88C15.1786 19.8256 15.0594 19.7461 14.9587 19.646L13.6831 18.3645C13.5872 18.2526 13.5371 18.1086 13.5428 17.9613C13.5485 17.8141 13.6096 17.6744 13.7138 17.5702C13.818 17.466 13.9577 17.4049 14.1049 17.3992C14.2522 17.3935 14.3962 17.4436 14.5081 17.5395L15.7252 18.7566L18.2413 16.2346C18.3509 16.1256 18.4992 16.0645 18.6538 16.0645C18.8084 16.0645 18.9567 16.1256 19.0664 16.2346C19.125 16.2893 19.1717 16.3554 19.2037 16.4289C19.2356 16.5024 19.2521 16.5816 19.2521 16.6618C19.2521 16.7419 19.2356 16.8212 19.2037 16.8947C19.1717 16.9682 19.125 17.0343 19.0664 17.0889V17.0655Z" fill="#373737"/>
</svg>
