<svg width="37" height="33" viewBox="0 0 37 33" fill="none" xmlns="http://www.w3.org/2000/svg">
<path d="M36.4334 27.0747L22.0043 2.01639C21.6437 1.40247 21.129 0.893441 20.5111 0.539753C19.8932 0.186065 19.1936 0 18.4816 0C17.7696 0 17.07 0.186065 16.4521 0.539753C15.8342 0.893441 15.3194 1.40247 14.9589 2.01639L0.529765 27.0747C0.182833 27.6685 0 28.3439 0 29.0316C0 29.7193 0.182833 30.3947 0.529765 30.9885C0.885717 31.6061 1.39959 32.1179 2.01865 32.4713C2.63771 32.8248 3.33966 33.0072 4.05248 32.9998H32.9107C33.623 33.0066 34.3242 32.8239 34.9427 32.4705C35.5611 32.1171 36.0745 31.6056 36.4301 30.9885C36.7776 30.3949 36.961 29.7197 36.9615 29.032C36.9621 28.3443 36.7799 27.6688 36.4334 27.0747ZM17.1616 13.2C17.1616 12.8499 17.3007 12.5142 17.5482 12.2666C17.7958 12.0191 18.1315 11.88 18.4816 11.88C18.8317 11.88 19.1674 12.0191 19.415 12.2666C19.6625 12.5142 19.8016 12.8499 19.8016 13.2V19.7999C19.8016 20.15 19.6625 20.4857 19.415 20.7333C19.1674 20.9808 18.8317 21.1199 18.4816 21.1199C18.1315 21.1199 17.7958 20.9808 17.5482 20.7333C17.3007 20.4857 17.1616 20.15 17.1616 19.7999V13.2ZM18.4816 27.7198C18.09 27.7198 17.7072 27.6037 17.3816 27.3861C17.056 27.1686 16.8022 26.8594 16.6523 26.4976C16.5025 26.1358 16.4633 25.7377 16.5397 25.3536C16.6161 24.9695 16.8046 24.6167 17.0815 24.3398C17.3584 24.0629 17.7112 23.8743 18.0953 23.7979C18.4794 23.7215 18.8775 23.7607 19.2393 23.9106C19.6011 24.0605 19.9103 24.3142 20.1279 24.6398C20.3455 24.9654 20.4616 25.3483 20.4616 25.7399C20.4616 26.265 20.253 26.7686 19.8817 27.1399C19.5103 27.5112 19.0067 27.7198 18.4816 27.7198Z" fill="#CE2424"/>
</svg>
