<svg width="26" height="25" viewBox="0 0 26 25" fill="none" xmlns="http://www.w3.org/2000/svg">
<path d="M25.5 22.8365L18.0433 15.3786C19.245 13.7272 19.8914 11.737 19.8894 9.69471C19.8894 4.34916 15.5403 0 10.1947 0C4.84916 0 0.5 4.34916 0.5 9.69471C0.5 15.0403 4.84916 19.3894 10.1947 19.3894C12.237 19.3914 14.2272 18.745 15.8786 17.5433L23.3365 25L25.5 22.8365ZM10.1947 16.3275C8.8827 16.3276 7.60011 15.9387 6.50916 15.2098C5.41821 14.481 4.56789 13.445 4.06575 12.2329C3.56361 11.0208 3.43219 9.68696 3.68813 8.40014C3.94406 7.11333 4.57584 5.93131 5.50358 5.00358C6.43131 4.07584 7.61333 3.44406 8.90014 3.18813C10.187 2.93219 11.5208 3.06361 12.7329 3.56575C13.945 4.06789 14.981 4.91821 15.7098 6.00916C16.4387 7.10011 16.8276 8.3827 16.8275 9.69471C16.8255 11.4532 16.126 13.1391 14.8825 14.3825C13.6391 15.626 11.9532 16.3255 10.1947 16.3275Z" fill="white"/>
<path d="M7.72717 8.10617C7.72717 7.26617 7.04587 6.58502 6.20572 6.58502C5.36557 6.58502 4.68457 7.26617 4.68457 8.10617C4.68457 8.94677 5.36542 9.62762 6.20572 9.62762C7.04602 9.62762 7.72717 8.94677 7.72717 8.10617ZM13.7939 6.88217C12.9539 6.88217 12.2728 7.56332 12.2728 8.40332C12.2728 9.24392 12.9539 9.92447 13.7939 9.92447C14.6341 9.92447 15.3152 9.24392 15.3152 8.40332C15.3152 7.56332 14.6342 6.88217 13.7939 6.88217ZM12.4123 10.0967C12.3065 9.96632 12.1568 9.81542 11.9849 9.65717C11.5262 9.06272 10.8088 8.67812 9.99997 8.67812C9.28012 8.67812 8.63302 8.98292 8.17567 9.46862C7.91587 9.69467 7.68487 9.91532 7.53787 10.0968L7.43947 10.217C6.98047 10.7766 6.40912 11.4729 6.41332 12.6545C6.41737 13.7517 7.31092 14.645 8.40502 14.645C8.70865 14.6456 9.00832 14.5761 9.28066 14.4419C9.553 14.3077 9.79065 14.1123 9.97507 13.8711C10.1595 14.1124 10.3972 14.3078 10.6697 14.442C10.9421 14.5763 11.2419 14.6457 11.5456 14.645C12.6392 14.645 13.5326 13.7519 13.5368 12.6545C13.541 11.4729 12.9695 10.7766 12.5107 10.217L12.4123 10.0967Z" fill="white"/>
<path d="M10.1054 7.70779C11.0312 7.70779 11.7817 6.9573 11.7817 6.03154C11.7817 5.10577 11.0312 4.35529 10.1054 4.35529C9.17968 4.35529 8.4292 5.10577 8.4292 6.03154C8.4292 6.9573 9.17968 7.70779 10.1054 7.70779Z" fill="white"/>
</svg>
