<svg width="21" height="20" viewBox="0 0 21 20" fill="none" xmlns="http://www.w3.org/2000/svg">
<path d="M19.945 18.0709C21.5162 15.2156 14.0444 12.1693 14.0444 12.1693C14.9953 10.8626 15.5068 9.28769 15.5053 7.67158C15.5053 3.44156 12.0637 0 7.83369 0C3.60367 0 0.162109 3.44156 0.162109 7.67158C0.162109 11.9016 3.60367 15.3432 7.83369 15.3432C9.4498 15.3447 11.0247 14.8332 12.3314 13.8823C12.3314 13.8823 15.3777 21.3541 18.233 19.7829C19.0614 19.3271 19.4892 18.8993 19.945 18.0709ZM7.83369 12.9202C6.79547 12.9203 5.78054 12.6125 4.91725 12.0358C4.05396 11.459 3.3811 10.6392 2.98374 9.68007C2.58639 8.7209 2.4824 7.66544 2.68492 6.64716C2.88745 5.62889 3.38739 4.69354 4.12152 3.95941C4.85565 3.22528 5.791 2.72534 6.80927 2.52281C7.82755 2.32029 8.88301 2.42428 9.84218 2.82163C10.8014 3.21899 11.6212 3.89185 12.1979 4.75514C12.7746 5.61843 13.0824 6.63336 13.0823 7.67158C13.0807 9.0631 12.5272 10.3972 11.5432 11.3811C10.5593 12.3651 9.22521 12.9186 7.83369 12.9202Z" fill="#9E9E9E"/>
</svg>
