<svg width="29" height="26" viewBox="0 0 29 26" fill="none" xmlns="http://www.w3.org/2000/svg">
<path d="M21.6703 16.1072C21.2179 14.467 20.2398 13.0206 18.8861 11.9897C17.5324 10.9589 15.878 10.4007 14.1765 10.4007C12.475 10.4007 10.8205 10.9589 9.46686 11.9897C8.11319 13.0206 7.1351 14.467 6.68264 16.1072L5.6044 20.0159C5.4108 20.7177 5.38192 21.4547 5.52 22.1695C5.65808 22.8843 5.95939 23.5576 6.40044 24.1368C6.8415 24.716 7.41037 25.1855 8.0627 25.5086C8.71504 25.8318 9.43321 26 10.1612 26H18.1918C18.9198 26 19.6379 25.8318 20.2903 25.5086C20.9426 25.1855 21.5115 24.716 21.9525 24.1368C22.3936 23.5576 22.6949 22.8843 22.833 22.1695C22.9711 21.4547 22.9422 20.7177 22.7486 20.0159L21.6703 16.1072ZM7.6827 11.719C7.84721 10.6909 7.62905 9.59023 7.06819 8.61905C6.50732 7.64788 5.66307 6.90863 4.69066 6.53703C3.64929 6.1393 2.58712 6.20265 1.69879 6.7153C-0.0671749 7.73492 -0.531903 10.2479 0.663036 12.3171C1.22372 13.2883 2.06803 14.0277 3.04045 14.3992C3.4712 14.567 3.92907 14.6546 4.39138 14.6574C4.96733 14.6595 5.53355 14.5089 6.03231 14.2208C6.92011 13.7081 7.50627 12.8196 7.6827 11.719ZM7.8875 7.80187C8.55886 8.33856 9.32553 8.61805 10.1008 8.61799C10.3331 8.61792 10.5646 8.59294 10.7915 8.54348C12.7841 8.11031 13.9923 5.85834 13.4847 3.52347C13.2466 2.42763 12.6677 1.4662 11.8546 0.816176C10.984 0.120118 9.95263 -0.143356 8.95062 0.0745612C6.95805 0.507677 5.74987 2.75964 6.25738 5.09451C6.49556 6.19042 7.07451 7.15184 7.8875 7.80187ZM26.6542 6.7153C25.7662 6.20265 24.7035 6.1393 23.6623 6.53703C22.6899 6.90851 21.8456 7.64788 21.2849 8.61905C20.7242 9.59023 20.506 10.6911 20.6704 11.719C20.8466 12.8196 21.4326 13.7081 22.3208 14.2208C22.8195 14.5089 23.3858 14.6596 23.9617 14.6574C24.424 14.6546 24.8819 14.567 25.3126 14.3992C26.2851 14.0277 27.1294 13.2883 27.6901 12.3171C28.8849 10.2479 28.4202 7.73492 26.6542 6.7153ZM17.5615 8.54348C17.7884 8.59294 18.0199 8.61792 18.2521 8.61799C19.0274 8.61799 19.7943 8.33856 20.4655 7.80187C21.2785 7.1519 21.8574 6.19042 22.0956 5.09457C22.6031 2.7597 21.3949 0.507736 19.4024 0.0746203C18.4004 -0.143178 17.369 0.120118 16.4984 0.816235C15.6853 1.4662 15.1064 2.42769 14.8682 3.52347C14.3607 5.85834 15.5688 8.11031 17.5615 8.54348Z" fill="url(#paint0_linear_10_498)"/>
<defs>
<linearGradient id="paint0_linear_10_498" x1="20.4168" y1="23.14" x2="-1.21394" y2="5.9037" gradientUnits="userSpaceOnUse">
<stop stop-color="#D94509"/>
<stop offset="0.402485" stop-color="#F27322"/>
<stop offset="0.965" stop-color="#FF934B"/>
</linearGradient>
</defs>
</svg>
