<svg width="65" height="65" viewBox="0 0 65 65" fill="none" xmlns="http://www.w3.org/2000/svg">
<circle cx="32.5" cy="32.5" r="32.5" fill="white"/>
<path d="M33 32C30.9375 32 29.1719 31.2656 27.7031 29.7969C26.2344 28.3281 25.5 26.5625 25.5 24.5C25.5 22.4375 26.2344 20.6719 27.7031 19.2031C29.1719 17.7344 30.9375 17 33 17C35.0625 17 36.8281 17.7344 38.2969 19.2031C39.7656 20.6719 40.5 22.4375 40.5 24.5C40.5 26.5625 39.7656 28.3281 38.2969 29.7969C36.8281 31.2656 35.0625 32 33 32ZM18 47V41.75C18 40.6875 18.2738 39.7112 18.8213 38.8212C19.3688 37.9312 20.095 37.2513 21 36.7812C22.9375 35.8125 24.9062 35.0862 26.9062 34.6025C28.9062 34.1187 30.9375 33.8762 33 33.875C35.0625 33.875 37.0938 34.1175 39.0938 34.6025C41.0938 35.0875 43.0625 35.8138 45 36.7812C45.9062 37.25 46.6331 37.93 47.1806 38.8212C47.7281 39.7125 48.0012 40.6888 48 41.75V47H18Z" fill="#373737"/>
</svg>
