<svg width="20" height="22" viewBox="0 0 20 22" fill="none" xmlns="http://www.w3.org/2000/svg">
<path fill-rule="evenodd" clip-rule="evenodd" d="M0 9.53319C0.00116739 7.00417 1.00673 4.57915 2.79557 2.79142C4.58441 1.00368 7.01004 -0.000389296 9.53906 1.13226e-07C14.8061 1.13226e-07 19.0781 4.26909 19.0781 9.53319C19.0781 13.4574 17.1145 16.5671 15.0101 18.6687C14.0798 19.603 13.0372 20.4183 11.9062 21.096C11.4337 21.3748 10.9919 21.595 10.6074 21.7446C10.2449 21.8885 9.86485 22 9.53906 22C9.21326 22 8.83317 21.8885 8.47068 21.7446C8.0218 21.562 7.58759 21.3451 7.1719 21.096C6.04093 20.4183 4.99835 19.603 4.06804 18.6687C1.96358 16.5671 0 13.4574 0 9.53319ZM9.53906 5.86579C8.56601 5.86579 7.63282 6.25233 6.94477 6.94037C6.25673 7.62842 5.87019 8.56161 5.87019 9.53465C5.87019 10.5077 6.25673 11.4409 6.94477 12.1289C7.63282 12.817 8.56601 13.2035 9.53906 13.2035C10.5121 13.2035 11.4453 12.817 12.1333 12.1289C12.8214 11.4409 13.2079 10.5077 13.2079 9.53465C13.2079 8.56161 12.8214 7.62842 12.1333 6.94037C11.4453 6.25233 10.5121 5.86579 9.53906 5.86579Z" fill="url(#paint0_linear_10_485)"/>
<defs>
<linearGradient id="paint0_linear_10_485" x1="13.738" y1="19.58" x2="-3.24097" y2="8.82101" gradientUnits="userSpaceOnUse">
<stop stop-color="#D94509"/>
<stop offset="0.402485" stop-color="#F27322"/>
<stop offset="0.965" stop-color="#FF934B"/>
</linearGradient>
</defs>
</svg>
