<svg width="35" height="35" viewBox="0 0 35 35" fill="none" xmlns="http://www.w3.org/2000/svg">
<rect x="1.5" y="1.5" width="32" height="32" rx="10.5" stroke="url(#paint0_linear_186_780)" stroke-width="3"/>
<path d="M23.5 10H11.5C10.675 10 10.0075 10.675 10.0075 11.5L10 25L13 22H23.5C24.325 22 25 21.325 25 20.5V11.5C25 10.675 24.325 10 23.5 10ZM13.75 15.25H21.25C21.6625 15.25 22 15.5875 22 16C22 16.4125 21.6625 16.75 21.25 16.75H13.75C13.3375 16.75 13 16.4125 13 16C13 15.5875 13.3375 15.25 13.75 15.25ZM18.25 19H13.75C13.3375 19 13 18.6625 13 18.25C13 17.8375 13.3375 17.5 13.75 17.5H18.25C18.6625 17.5 19 17.8375 19 18.25C19 18.6625 18.6625 19 18.25 19ZM21.25 14.5H13.75C13.3375 14.5 13 14.1625 13 13.75C13 13.3375 13.3375 13 13.75 13H21.25C21.6625 13 22 13.3375 22 13.75C22 14.1625 21.6625 14.5 21.25 14.5Z" fill="url(#paint1_linear_186_780)"/>
<defs>
<linearGradient id="paint0_linear_186_780" x1="25.2032" y1="31.15" x2="-3.25696" y2="10.3537" gradientUnits="userSpaceOnUse">
<stop stop-color="#FF5C00"/>
<stop offset="0.402485" stop-color="#FF8E26"/>
<stop offset="0.965" stop-color="#FFC149"/>
</linearGradient>
<linearGradient id="paint1_linear_186_780" x1="20.8014" y1="23.35" x2="8.60416" y2="14.4373" gradientUnits="userSpaceOnUse">
<stop stop-color="#D94509"/>
<stop offset="0.402485" stop-color="#F27322"/>
<stop offset="0.965" stop-color="#FF934B"/>
</linearGradient>
</defs>
</svg>
