<svg width="28" height="30" viewBox="0 0 28 30" fill="none" xmlns="http://www.w3.org/2000/svg">
<path d="M1.66583 2.48362C1.39421 3.02386 1.26065 3.69316 0.993528 5.02876L0.0961247 9.51578C-0.0310591 10.1276 -0.0320442 10.7589 0.0932299 11.3711C0.218504 11.9832 0.467401 12.5634 0.824684 13.0761C1.18197 13.5887 1.64012 14.023 2.17109 14.3525C2.70207 14.6819 3.29469 14.8995 3.91268 14.992C4.53067 15.0844 5.16103 15.0498 5.76516 14.8901C6.3693 14.7305 6.93449 14.4493 7.42616 14.0636C7.91782 13.678 8.32561 13.196 8.62455 12.6473C8.92348 12.0986 9.10729 11.4946 9.1647 10.8724L9.26975 9.83693C9.21288 10.4955 9.29401 11.1587 9.50795 11.7841C9.72189 12.4095 10.0639 12.9834 10.5123 13.4692C10.9606 13.9549 11.5053 14.3418 12.1116 14.6051C12.7179 14.8684 13.3724 15.0024 14.0334 14.9984C14.6944 14.9944 15.3473 14.8526 15.9504 14.582C16.5534 14.3114 17.0935 13.918 17.5359 13.4269C17.9783 12.9357 18.3134 12.3577 18.5198 11.7298C18.7262 11.1018 18.7993 10.4377 18.7345 9.7799L18.8441 10.8724C18.9015 11.4946 19.0853 12.0986 19.3842 12.6473C19.6832 13.196 20.0909 13.678 20.5826 14.0636C21.0743 14.4493 21.6395 14.7305 22.2436 14.8901C22.8477 15.0498 23.4781 15.0844 24.0961 14.992C24.7141 14.8995 25.3067 14.6819 25.8377 14.3525C26.3686 14.023 26.8268 13.5887 27.1841 13.0761C27.5414 12.5634 27.7903 11.9832 27.9155 11.3711C28.0408 10.7589 28.0398 10.1276 27.9126 9.51578L27.0152 5.02876C26.7481 3.69316 26.6146 3.02536 26.3429 2.48362C26.0599 1.91942 25.6614 1.42104 25.1733 1.02084C24.6852 0.620626 24.1184 0.327531 23.5097 0.160572C22.9244 1.63913e-07 22.2431 0 20.8805 0H7.12829C5.76568 0 5.08437 1.63913e-07 4.49911 0.160572C3.89038 0.327531 3.32357 0.620626 2.83546 1.02084C2.34735 1.42104 1.94885 1.91942 1.66583 2.48362ZM23.4121 17.2578C24.5846 17.2607 25.738 16.9604 26.7601 16.3859V18.0081C26.7601 23.6672 26.7601 26.4974 25.0013 28.2547C23.5862 29.6714 21.4777 29.946 17.7561 30V24.7611C17.7561 23.358 17.7561 22.6572 17.4544 22.135C17.2569 21.7928 16.9727 21.5086 16.6306 21.3111C16.1083 21.0095 15.4075 21.0095 14.0044 21.0095C12.6013 21.0095 11.9004 21.0095 11.3782 21.3111C11.036 21.5086 10.7519 21.7928 10.5543 22.135C10.2527 22.6572 10.2527 23.358 10.2527 24.7611V30C6.53102 29.946 4.42257 29.6698 3.00743 28.2547C1.24864 26.4974 1.24864 23.6672 1.24864 18.0081V16.3859C2.27122 16.9606 3.42512 17.261 4.59815 17.2578C6.33242 17.259 8.00215 16.6001 9.26825 15.4149C10.5587 16.6036 12.25 17.2617 14.0044 17.2578C15.7588 17.2615 17.45 16.6034 18.7405 15.4149C20.0066 16.6001 21.6778 17.259 23.4121 17.2578Z" fill="#F27322"/>
</svg>
