<svg width="113" height="70" viewBox="0 0 113 70" fill="none" xmlns="http://www.w3.org/2000/svg">
<path fill-rule="evenodd" clip-rule="evenodd" d="M26.527 0C11.8765 0 0 11.8765 0 26.527C0 41.1774 11.8765 53.054 26.527 53.054H86.3624C101.013 53.054 112.889 41.1774 112.889 26.527C112.889 11.8765 101.013 0 86.3624 0H26.527ZM24.4347 7.45902C18.2282 7.45902 13.1968 12.4904 13.1968 18.697C13.1968 24.9036 18.2282 29.935 24.4347 29.935H86.6755C92.882 29.935 97.9134 24.9036 97.9134 18.697C97.9134 12.4904 92.882 7.45902 86.6755 7.45902H24.4347Z" fill="#D94509"/>
<circle cx="84.7745" cy="55.9426" r="14.0574" fill="#FFAD32"/>
</svg>
