<svg width="75" height="19" viewBox="0 0 75 19" fill="none" xmlns="http://www.w3.org/2000/svg">
<path fill-rule="evenodd" clip-rule="evenodd" d="M7.20018 0C3.22363 0 0 3.22363 0 7.20018C0 11.1767 3.22362 14.4004 7.20017 14.4004H23.4412C27.4178 14.4004 30.6414 11.1767 30.6414 7.20018C30.6414 3.22363 27.4178 0 23.4412 0H7.20018ZM6.63226 2.0246C4.94762 2.0246 3.58195 3.39027 3.58195 5.07491C3.58195 6.75955 4.94762 8.12522 6.63226 8.12522H23.5262C25.2108 8.12522 26.5765 6.75955 26.5765 5.07491C26.5765 3.39027 25.2108 2.0246 23.5262 2.0246H6.63226Z" fill="#D94509"/>
<circle cx="23.0102" cy="15.1844" r="3.81557" fill="#FFAD32"/>
<path d="M41.016 12.144C40.16 12.144 39.384 11.96 38.688 11.592C38 11.216 37.456 10.7 37.056 10.044C36.664 9.38 36.468 8.632 36.468 7.8C36.468 6.968 36.664 6.224 37.056 5.568C37.456 4.904 38 4.388 38.688 4.02C39.384 3.644 40.164 3.456 41.028 3.456C41.756 3.456 42.412 3.584 42.996 3.84C43.588 4.096 44.084 4.464 44.484 4.944L43.236 6.096C42.668 5.44 41.964 5.112 41.124 5.112C40.604 5.112 40.14 5.228 39.732 5.46C39.324 5.684 39.004 6 38.772 6.408C38.548 6.816 38.436 7.28 38.436 7.8C38.436 8.32 38.548 8.784 38.772 9.192C39.004 9.6 39.324 9.92 39.732 10.152C40.14 10.376 40.604 10.488 41.124 10.488C41.964 10.488 42.668 10.156 43.236 9.492L44.484 10.644C44.084 11.132 43.588 11.504 42.996 11.76C42.404 12.016 41.744 12.144 41.016 12.144ZM48.5141 12.096C47.8341 12.096 47.2221 11.956 46.6781 11.676C46.1421 11.388 45.7221 10.992 45.4181 10.488C45.1141 9.984 44.9621 9.412 44.9621 8.772C44.9621 8.132 45.1141 7.56 45.4181 7.056C45.7221 6.552 46.1421 6.16 46.6781 5.88C47.2221 5.592 47.8341 5.448 48.5141 5.448C49.1941 5.448 49.8021 5.592 50.3381 5.88C50.8741 6.16 51.2941 6.552 51.5981 7.056C51.9021 7.56 52.0541 8.132 52.0541 8.772C52.0541 9.412 51.9021 9.984 51.5981 10.488C51.2941 10.992 50.8741 11.388 50.3381 11.676C49.8021 11.956 49.1941 12.096 48.5141 12.096ZM48.5141 10.56C48.9941 10.56 49.3861 10.4 49.6901 10.08C50.0021 9.752 50.1581 9.316 50.1581 8.772C50.1581 8.228 50.0021 7.796 49.6901 7.476C49.3861 7.148 48.9941 6.984 48.5141 6.984C48.0341 6.984 47.6381 7.148 47.3261 7.476C47.0141 7.796 46.8581 8.228 46.8581 8.772C46.8581 9.316 47.0141 9.752 47.3261 10.08C47.6381 10.4 48.0341 10.56 48.5141 10.56ZM55.6214 12.096C54.8934 12.096 54.3254 11.904 53.9174 11.52C53.5094 11.128 53.3054 10.576 53.3054 9.864V3.096H55.1774V9.756C55.1774 10.028 55.2454 10.24 55.3814 10.392C55.5254 10.536 55.7254 10.608 55.9814 10.608C56.0774 10.608 56.1734 10.596 56.2694 10.572C56.3734 10.548 56.4534 10.52 56.5094 10.488L56.5934 11.94C56.2814 12.044 55.9574 12.096 55.6214 12.096ZM59.8284 12.096C59.1004 12.096 58.5324 11.904 58.1244 11.52C57.7164 11.128 57.5124 10.576 57.5124 9.864V3.096H59.3844V9.756C59.3844 10.028 59.4524 10.24 59.5884 10.392C59.7324 10.536 59.9324 10.608 60.1884 10.608C60.2844 10.608 60.3804 10.596 60.4764 10.572C60.5804 10.548 60.6604 10.52 60.7164 10.488L60.8004 11.94C60.4884 12.044 60.1644 12.096 59.8284 12.096ZM68.1543 5.544V12H66.3663V11.256C65.9023 11.816 65.2303 12.096 64.3503 12.096C63.7423 12.096 63.1903 11.96 62.6943 11.688C62.2063 11.416 61.8223 11.028 61.5423 10.524C61.2623 10.02 61.1223 9.436 61.1223 8.772C61.1223 8.108 61.2623 7.524 61.5423 7.02C61.8223 6.516 62.2063 6.128 62.6943 5.856C63.1903 5.584 63.7423 5.448 64.3503 5.448C65.1743 5.448 65.8183 5.708 66.2823 6.228V5.544H68.1543ZM64.6743 10.56C65.1463 10.56 65.5383 10.4 65.8503 10.08C66.1623 9.752 66.3183 9.316 66.3183 8.772C66.3183 8.228 66.1623 7.796 65.8503 7.476C65.5383 7.148 65.1463 6.984 64.6743 6.984C64.1943 6.984 63.7983 7.148 63.4863 7.476C63.1743 7.796 63.0183 8.228 63.0183 8.772C63.0183 9.316 63.1743 9.752 63.4863 10.08C63.7983 10.4 64.1943 10.56 64.6743 10.56ZM71.6754 6.396C71.8994 6.084 72.1994 5.848 72.5754 5.688C72.9594 5.528 73.3994 5.448 73.8954 5.448V7.176C73.6874 7.16 73.5474 7.152 73.4754 7.152C72.9394 7.152 72.5194 7.304 72.2154 7.608C71.9114 7.904 71.7594 8.352 71.7594 8.952V12H69.8874V5.544H71.6754V6.396Z" fill="#D94509"/>
</svg>
