<svg width="13" height="13" viewBox="0 0 13 13" fill="none" xmlns="http://www.w3.org/2000/svg">
<path d="M11.8575 1.63476C13.3282 3.10851 13.3787 5.45645 12.0109 6.98782L6.49981 12.5075L0.988877 6.98782C-0.378912 5.45645 -0.327784 3.1048 1.14226 1.63476C2.61397 0.163047 4.96928 0.113466 6.50053 1.48602C8.02735 0.1155 10.3868 0.160999 11.8575 1.63476ZM2.06148 2.55398C1.09317 3.52229 1.04456 5.07315 1.93692 6.09747L6.49981 10.6676L11.0629 6.09747C11.9556 5.07276 11.9071 3.52485 10.9373 2.55302C9.97062 1.58434 8.41461 1.53771 7.39316 2.4319L4.66143 5.16389L3.74221 4.24464L5.57819 2.40736L5.52503 2.36251C4.50146 1.54025 3.00504 1.61043 2.06148 2.55398Z" fill="#696969"/>
</svg>
