<svg width="15" height="15" viewBox="0 0 15 15" fill="none" xmlns="http://www.w3.org/2000/svg">
<path d="M1.86988 13.125C1.52753 13.125 1.25 12.8469 1.25 12.5041V2.49588C1.25 2.15298 1.53457 1.875 1.86988 1.875H13.1301C13.4725 1.875 13.75 2.15309 13.75 2.49588V12.5041C13.75 12.847 13.4654 13.125 13.1301 13.125H1.86988ZM12.5 9.375V3.125H2.5V11.875L8.75 5.625L12.5 9.375ZM12.5 11.1427L8.75 7.39275L4.26777 11.875H12.5V11.1427ZM5 6.875C4.30964 6.875 3.75 6.31537 3.75 5.625C3.75 4.93464 4.30964 4.375 5 4.375C5.69036 4.375 6.25 4.93464 6.25 5.625C6.25 6.31537 5.69036 6.875 5 6.875Z" fill="#696969"/>
</svg>
