<svg width="13" height="13" viewBox="0 0 13 13" fill="none" xmlns="http://www.w3.org/2000/svg">
<path d="M6.50075 4.625C5.46487 4.625 4.62573 5.46444 4.62573 6.5C4.62573 7.53581 5.46518 8.375 6.50075 8.375C7.53656 8.375 8.37575 7.53556 8.37575 6.5C8.37575 5.46419 7.53631 4.625 6.50075 4.625ZM6.50075 3.375C8.226 3.375 9.62574 4.77319 9.62574 6.5C9.62574 8.22531 8.22756 9.625 6.50075 9.625C4.77544 9.625 3.37573 8.22681 3.37573 6.5C3.37573 4.77471 4.77392 3.375 6.50075 3.375ZM10.5632 3.21822C10.5632 3.64954 10.2127 3.99948 9.78199 3.99948C9.35068 3.99948 9.00074 3.649 9.00074 3.21822C9.00074 2.78744 9.35118 2.4375 9.78199 2.4375C10.2122 2.43696 10.5632 2.78744 10.5632 3.21822ZM6.50075 1.5C4.95418 1.5 4.70211 1.50409 3.98279 1.53612C3.49271 1.55913 3.1642 1.62504 2.85897 1.74354C2.58772 1.84874 2.39205 1.97436 2.18357 2.18284C1.97429 2.39212 1.84889 2.58727 1.74412 2.85864C1.62534 3.16458 1.55945 3.49257 1.53686 3.98197C1.50451 4.672 1.50073 4.91316 1.50073 6.5C1.50073 8.04656 1.50483 8.29862 1.53685 9.01788C1.55987 9.50775 1.62587 9.83675 1.74408 10.1413C1.84956 10.4129 1.97543 10.609 2.18291 10.8165C2.39301 11.0263 2.58874 11.1521 2.85754 11.2559C3.16649 11.3753 3.49479 11.4413 3.98269 11.4639C4.67273 11.4962 4.91389 11.5 6.50075 11.5C8.04731 11.5 8.29937 11.4959 9.01862 11.4639C9.50743 11.4409 9.83668 11.3748 10.142 11.2566C10.4129 11.1514 10.6096 11.0251 10.8172 10.8178C11.0274 10.6074 11.1529 10.4121 11.2568 10.1427C11.3759 9.83488 11.4421 9.50613 11.4646 9.01806C11.4969 8.328 11.5007 8.08681 11.5007 6.5C11.5007 4.95345 11.4966 4.70138 11.4646 3.98211C11.4416 3.49316 11.3754 3.16343 11.2572 2.85824C11.1522 2.58774 11.0262 2.39147 10.8179 2.18284C10.6082 1.97322 10.4136 1.84808 10.1421 1.74339C9.83637 1.62471 9.50787 1.55872 9.01875 1.53613C8.32874 1.50378 8.08756 1.5 6.50075 1.5ZM6.50075 0.25C8.19862 0.25 8.41062 0.25625 9.07731 0.2875C9.74237 0.318231 10.1961 0.423438 10.5945 0.578125C11.0064 0.736981 11.3544 0.951562 11.7017 1.29896C12.0486 1.64636 12.2632 1.99531 12.4226 2.40625C12.5767 2.80417 12.682 3.25833 12.7132 3.92344C12.7429 4.59011 12.7507 4.80208 12.7507 6.5C12.7507 8.19794 12.7445 8.40987 12.7132 9.07656C12.6825 9.74169 12.5767 10.1953 12.4226 10.5938C12.2637 11.0057 12.0486 11.3536 11.7017 11.7011C11.3544 12.0479 11.0049 12.2625 10.5945 12.4219C10.1961 12.5761 9.74237 12.6813 9.07731 12.7125C8.41062 12.7422 8.19862 12.75 6.50075 12.75C4.80281 12.75 4.59083 12.7438 3.92417 12.7125C3.25906 12.6818 2.80594 12.5761 2.40698 12.4219C1.99552 12.263 1.64708 12.0479 1.29969 11.7011C0.952295 11.3536 0.738232 11.0042 0.578857 10.5938C0.42417 10.1953 0.319483 9.74169 0.288233 9.07656C0.258545 8.40987 0.250732 8.19794 0.250732 6.5C0.250732 4.80208 0.256983 4.59011 0.288233 3.92344C0.318958 3.25781 0.42417 2.80469 0.578857 2.40625C0.737707 1.99479 0.952295 1.64636 1.29969 1.29896C1.64708 0.951562 1.99605 0.7375 2.40698 0.578125C2.80542 0.423438 3.25854 0.31875 3.92417 0.2875C4.59083 0.257812 4.80281 0.25 6.50075 0.25Z" fill="#696969"/>
</svg>
