<svg width="13" height="13" viewBox="0 0 13 13" fill="none" xmlns="http://www.w3.org/2000/svg">
<path d="M12.125 9.2625V11.4726C12.125 11.8007 11.8713 12.0729 11.5441 12.0961C11.2707 12.1154 11.0477 12.125 10.875 12.125C5.35212 12.125 0.875 7.64788 0.875 2.125C0.875 1.95232 0.884656 1.72929 0.903969 1.45594C0.927106 1.12868 1.19934 0.875 1.52741 0.875H3.73756C3.89799 0.875 4.03235 0.996513 4.04846 1.15613C4.06292 1.29942 4.07636 1.41446 4.08879 1.50126C4.21522 2.3842 4.47346 3.2246 4.84294 4.00189C4.90224 4.12666 4.86357 4.27599 4.75116 4.35629L3.40222 5.31988C4.22345 7.23819 5.76181 8.77656 7.68012 9.59781L8.64194 8.25119C8.72325 8.13744 8.87437 8.09831 9.00062 8.15825C9.77787 8.52744 10.6182 8.78538 11.501 8.9115C11.5872 8.92387 11.7016 8.93719 11.8439 8.95156C12.0035 8.96769 12.125 9.10206 12.125 9.2625Z" fill="#696969"/>
</svg>
