<svg width="8" height="10" viewBox="0 0 8 10" fill="none" xmlns="http://www.w3.org/2000/svg">
<path d="M4 8.7081L6.06238 6.64569C7.20142 5.50669 7.20142 3.65995 6.06238 2.52092C4.92338 1.38189 3.07663 1.38189 1.9376 2.52092C0.798575 3.65995 0.798575 5.50669 1.9376 6.64569L4 8.7081ZM4 9.8866L1.34835 7.23498C-0.116117 5.77048 -0.116117 3.39613 1.34835 1.93166C2.81282 0.467196 5.18717 0.467196 6.65167 1.93166C8.11613 3.39613 8.11613 5.77048 6.65167 7.23498L4 9.8866ZM4 5.41665C4.46025 5.41665 4.83333 5.04356 4.83333 4.58331C4.83333 4.12308 4.46025 3.74998 4 3.74998C3.53975 3.74998 3.16667 4.12308 3.16667 4.58331C3.16667 5.04356 3.53975 5.41665 4 5.41665ZM4 6.24998C3.07952 6.24998 2.33333 5.50377 2.33333 4.58331C2.33333 3.66284 3.07952 2.91665 4 2.91665C4.92046 2.91665 5.66667 3.66284 5.66667 4.58331C5.66667 5.50377 4.92046 6.24998 4 6.24998Z" fill="#D6D6D6"/>
</svg>
