<svg width="13" height="13" viewBox="0 0 13 13" fill="none" xmlns="http://www.w3.org/2000/svg">
<path d="M2.25067 1.5812C3.39011 0.595972 4.87545 0 6.5 0C10.0898 0 13 2.91015 13 6.5C13 7.88846 12.5646 9.17527 11.823 10.2314L9.75 6.5H11.7C11.7 3.62812 9.37189 1.3 6.5 1.3C5.10238 1.3 3.83355 1.85138 2.89915 2.74847L2.25067 1.5812ZM10.7493 11.4188C9.60986 12.404 8.12455 13 6.5 13C2.91015 13 0 10.0898 0 6.5C0 5.11151 0.435364 3.8247 1.17702 2.76864L3.25 6.5H1.3C1.3 9.37189 3.62812 11.7 6.5 11.7C7.89763 11.7 9.16643 11.1486 10.1009 10.2515L10.7493 11.4188Z" fill="#696969"/>
</svg>
